<?xml version="1.0" standalone="no"?>
<!DOCTYPE svg PUBLIC "-//W3C//DTD SVG 20010904//EN"
 "http://www.w3.org/TR/2001/REC-SVG-20010904/DTD/svg10.dtd">
<svg version="1.0" xmlns="http://www.w3.org/2000/svg"
 width="640.000000pt" height="427.000000pt" viewBox="0 0 640.000000 427.000000"
 preserveAspectRatio="xMidYMid meet">

<g transform="translate(0.000000,427.000000) scale(0.100000,-0.100000)"
fill="#000000" stroke="none">
<path d="M5239 3628 c0 -354 -3 -650 -7 -659 -6 -14 -12 -13 -47 9 -27 17 -56
26 -90 27 -27 1 -51 7 -53 14 -2 6 -9 8 -15 4 -7 -4 -8 0 -4 11 4 9 3 15 -2
11 -6 -3 -21 10 -35 28 -14 19 -41 42 -59 51 -20 11 -39 33 -49 57 l-17 40
-303 -7 c-167 -3 -307 -10 -312 -14 -13 -12 2 -30 27 -31 12 -1 4 -5 -18 -8
-38 -6 -40 -8 -43 -47 -3 -40 -4 -41 -67 -65 -36 -13 -65 -27 -65 -31 0 -5 -9
-8 -19 -8 -10 0 -22 -8 -25 -17 -4 -10 -10 -13 -14 -8 -4 6 -29 10 -57 10 -27
1 -68 5 -90 9 -36 8 -39 7 -27 -7 8 -10 9 -17 3 -21 -6 -4 -8 -13 -4 -21 3 -8
2 -26 -1 -39 -5 -21 -11 -23 -77 -25 -40 -1 -76 -4 -80 -7 -4 -2 -10 4 -12 13
-4 14 -5 13 -6 -4 -1 -22 -5 -23 -93 -23 -50 0 -88 3 -85 7 4 3 41 5 82 4 41
-1 75 1 75 6 0 4 -20 7 -44 5 -24 -2 -88 3 -143 12 -133 21 -142 21 -136 -4 5
-19 0 -20 -150 -20 -86 0 -158 -4 -161 -9 -8 -12 41 -20 80 -14 17 3 34 1 38
-5 3 -5 -12 -12 -35 -15 -56 -7 -64 -17 -49 -63 l13 -37 541 7 c297 4 726 7
951 7 l410 1 3 -253 c1 -139 6 -257 11 -262 6 -6 21 -2 38 10 37 25 100 53
118 53 8 0 15 4 15 8 0 9 81 48 93 44 11 -3 226 73 267 95 27 14 57 18 127 18
50 0 95 -3 99 -7 4 -4 9 -29 12 -55 2 -27 5 -49 6 -50 1 -1 18 11 38 27 20 16
61 37 92 47 51 16 58 21 68 54 l11 37 148 0 c154 0 148 -1 247 52 l42 24 0
418 c0 231 -4 417 -9 414 -4 -3 -16 -31 -25 -63 -9 -32 -21 -71 -27 -88 -6
-16 -14 -42 -16 -57 -5 -25 -10 -28 -44 -28 -22 0 -39 -4 -39 -10 0 -5 -18
-10 -41 -10 -31 0 -40 -3 -36 -14 8 -20 -68 -53 -86 -37 -24 20 -26 100 -6
286 11 99 24 221 29 270 16 152 59 528 65 563 l6 32 -105 0 -104 0 -11 -82
c-5 -46 -22 -186 -36 -313 -27 -242 -91 -781 -101 -851 -3 -25 -13 -45 -26
-53 -19 -12 -19 -10 -14 46 l5 58 -13 -55 c-7 -30 -18 -66 -23 -80 -6 -14 -8
-32 -6 -40 2 -8 -3 -2 -12 13 -10 17 -22 26 -30 23 -8 -3 -28 8 -44 24 -16 17
-38 30 -49 30 -15 0 -22 9 -27 37 -8 44 -40 110 -55 115 -6 2 -15 33 -20 68
-4 36 -13 83 -19 106 -6 23 -11 52 -11 65 1 35 -10 218 -15 259 -4 31 -11 125
-32 450 -4 52 -7 114 -7 138 l0 42 -88 0 -88 0 -1 -642z m808 -500 c-2 -13 -4
-5 -4 17 -1 22 1 32 4 23 2 -10 2 -28 0 -40z m-1080 -72 c12 -24 13 -28 2 -20
-8 6 -22 10 -31 9 -15 -3 -38 38 -38 67 0 17 51 -26 67 -56z m1116 1 c-5 -9
-33 18 -33 31 0 6 6 12 13 15 12 4 28 -31 20 -46z m-46 -4 c-3 -10 -5 -4 -5
12 0 17 2 24 5 18 2 -7 2 -21 0 -30z m-1797 -26 c0 -5 -12 -6 -27 -3 -16 5
-29 3 -34 -5 -6 -10 -11 -10 -25 1 -15 13 -13 16 22 32 36 16 40 16 52 1 6 -9
12 -21 12 -26z m-110 -1 c0 -3 -4 -8 -10 -11 -5 -3 -10 -1 -10 4 0 6 5 11 10
11 6 0 10 -2 10 -4z m1917 -53 c-3 -10 -5 -4 -5 12 0 17 2 24 5 18 2 -7 2 -21
0 -30z m-1066 4 c-13 -13 -26 -3 -16 12 3 6 11 8 17 5 6 -4 6 -10 -1 -17z
m1046 -19 c-3 -8 -6 -5 -6 6 -1 11 2 17 5 13 3 -3 4 -12 1 -19z m-2850 -104
c-3 -3 -12 -4 -19 -1 -8 3 -5 6 6 6 11 1 17 -2 13 -5z"/>
<path d="M6113 3625 c0 -22 2 -30 4 -17 2 12 2 30 0 40 -3 9 -5 -1 -4 -23z"/>
<path d="M6385 3620 c3 -5 8 -10 11 -10 2 0 4 5 4 10 0 6 -5 10 -11 10 -5 0
-7 -4 -4 -10z"/>
<path d="M1325 2900 c-126 -5 -129 -16 -5 -22 29 -1 16 -4 -35 -7 l-80 -6 138
-9 c76 -4 140 -6 142 -4 3 2 6 15 7 28 3 28 15 27 -167 20z"/>
<path d="M1198 2813 c34 -2 90 -2 125 0 34 2 6 3 -63 3 -69 0 -97 -1 -62 -3z"/>
<path d="M968 2803 c6 -2 18 -2 25 0 6 3 1 5 -13 5 -14 0 -19 -2 -12 -5z"/>
<path d="M740 2740 c0 -5 5 -10 10 -10 6 0 10 5 10 10 0 6 -4 10 -10 10 -5 0
-10 -4 -10 -10z"/>
<path d="M3975 2609 c-628 -7 -842 -12 -851 -22 -3 -2 2 -17 11 -33 8 -16 15
-25 15 -20 0 6 6 4 12 -2 10 -10 10 -15 2 -20 -11 -7 75 -349 164 -652 28 -97
62 -232 62 -248 0 -4 -15 9 -33 28 -76 80 -108 104 -118 89 -5 -8 -9 -17 -9
-21 0 -5 -5 -8 -12 -8 -6 0 -31 -20 -55 -45 -23 -25 -47 -45 -51 -45 -5 0 -17
-10 -28 -21 -10 -12 -77 -60 -149 -107 -71 -47 -132 -88 -135 -91 -6 -7 -40
-29 -60 -38 -8 -4 -24 -15 -34 -25 -11 -10 -25 -18 -31 -18 -7 0 -25 -11 -40
-24 -45 -39 -135 -56 -302 -57 -184 0 -228 -7 -228 -34 0 -13 -8 -21 -23 -23
-16 -3 -22 2 -22 16 0 16 -15 23 -82 40 -157 39 -269 64 -272 61 -8 -9 -34
-235 -28 -240 4 -4 48 -9 99 -11 88 -4 92 -3 102 19 14 31 29 29 33 -4 2 -20
11 -29 35 -37 102 -34 -13 -59 -482 -106 -395 -40 -454 -47 -575 -65 -209 -31
-362 -70 -622 -156 -97 -33 -197 -62 -222 -65 -46 -7 -46 -7 -46 -47 l0 -40
58 6 c31 4 120 22 196 42 96 24 143 32 150 25 16 -16 33 -12 39 9 6 24 89 51
95 31 3 -8 10 -6 22 5 19 17 149 47 283 65 59 8 82 8 93 0 10 -9 21 -9 46 0
44 16 239 49 255 43 14 -5 23 -45 108 -458 l61 -300 32 -3 c23 -2 32 1 32 12
0 8 -15 81 -34 163 -79 339 -128 575 -122 588 6 17 81 21 90 6 9 -14 112 -648
118 -723 1 -15 6 -24 10 -22 4 3 8 -2 8 -10 0 -14 23 -16 175 -16 173 0 175 0
180 23 3 12 12 67 20 122 25 166 27 179 38 193 12 16 52 38 44 25 -5 -8 -77
-344 -77 -359 0 -2 223 -4 496 -4 467 0 495 1 490 18 -3 9 -12 55 -21 102 -9
47 -27 141 -40 210 -24 123 -105 568 -105 577 0 2 5 1 11 -2 7 -5 8 5 3 32 -4
21 -4 36 -1 33 7 -6 12 -37 52 -275 15 -88 49 -272 76 -408 27 -137 49 -257
49 -268 0 -18 17 -19 605 -19 l605 0 1 43 c3 104 16 188 39 260 12 34 32 107
44 162 37 157 95 352 132 442 19 45 34 86 34 91 0 22 93 247 117 283 13 20 48
99 77 175 29 77 72 187 95 247 22 59 41 113 41 121 0 7 20 54 45 104 25 50 45
95 45 101 0 6 5 11 10 11 14 0 14 535 0 561 -9 17 -21 19 -93 17 -45 -1 -383
-5 -752 -9z m-1025 -1369 c0 -5 -4 -10 -10 -10 -5 0 -10 5 -10 10 0 6 5 10 10
10 6 0 10 -4 10 -10z m-316 -26 c24 -9 20 -44 -4 -44 -15 0 -20 7 -20 25 0 27
1 28 24 19z m-654 -89 c13 8 13 2 -2 -30 -11 -25 -41 -34 -53 -16 -3 5 0 21 6
35 9 20 15 23 25 15 7 -6 18 -8 24 -4z m120 -10 c0 -14 5 -34 11 -44 10 -14 7
-29 -16 -75 -27 -56 -53 -86 -41 -50 15 50 28 123 28 157 -1 20 3 37 9 37 5 0
9 -11 9 -25z m550 -14 c5 -11 6 -22 1 -25 -4 -3 -13 6 -19 19 -14 30 2 34 18
6z m77 -108 c-3 -10 -5 -4 -5 12 0 17 2 24 5 18 2 -7 2 -21 0 -30z m20 5 c-3
-8 -6 -5 -6 6 -1 11 2 17 5 13 3 -3 4 -12 1 -19z m-10 -60 c-3 -7 -5 -2 -5 12
0 14 2 19 5 13 2 -7 2 -19 0 -25z m-637 -28 c0 -5 -5 -10 -11 -10 -5 0 -7 5
-4 10 3 6 8 10 11 10 2 0 4 -4 4 -10z m-37 -198 c-15 -74 -29 -128 -33 -120
-26 48 -17 186 17 252 12 24 17 26 28 15 11 -12 9 -36 -12 -147z m-297 -94
c-36 -106 -77 -233 -91 -283 -39 -129 -72 -206 -93 -213 -15 -5 -15 21 -1 72
8 30 13 36 21 25 7 -10 8 -6 5 15 -5 33 156 534 188 582 15 23 19 25 26 11 6
-10 -11 -77 -55 -209z m-81 175 c22 -3 44 -8 48 -12 10 -10 -2 -43 -13 -36 -7
4 -22 -32 -25 -60 -1 -13 -25 -56 -39 -72 -6 -7 -17 -20 -25 -29 -8 -10 -18
-56 -23 -113 -11 -119 -29 -233 -38 -244 -4 -5 -10 9 -13 30 -3 21 -24 146
-46 277 -29 170 -38 243 -31 250 13 13 116 26 145 19 11 -3 38 -7 60 -10z
m324 -334 c1 -31 -5 -40 -46 -70 -57 -41 -103 -70 -103 -65 0 2 21 20 48 39
47 35 47 36 60 118 8 46 16 88 20 94 7 11 20 -59 21 -116z m-102 62 c0 -11 -5
-18 -9 -15 -4 3 -5 11 -1 19 7 21 12 19 10 -4z"/>
<path d="M5688 2277 c-29 -10 -84 -25 -123 -32 -106 -21 -189 -51 -309 -113
-143 -74 -218 -144 -239 -223 -40 -149 -61 -278 -60 -359 2 -88 29 -371 39
-403 3 -9 -2 -42 -11 -72 -24 -84 -35 -149 -46 -283 -5 -68 -23 -183 -40 -255
-17 -73 -35 -184 -40 -247 -5 -63 -15 -142 -24 -175 -8 -33 -15 -72 -15 -87
l0 -28 790 0 790 0 0 1150 0 1151 -172 -5 c-118 -3 -189 -9 -223 -20 -50 -16
-62 -15 -217 12 -38 7 -59 5 -100 -11z"/>
<path d="M769 1166 c-2 -3 -31 -7 -64 -11 -33 -4 -116 -15 -185 -26 -69 -11
-201 -26 -295 -34 -228 -20 -225 -19 -225 -61 0 -40 9 -43 38 -9 14 16 34 26
54 27 49 2 81 -2 94 -13 6 -5 24 -7 40 -5 16 3 61 8 101 11 70 5 73 4 108 -26
32 -28 35 -36 35 -84 0 -39 4 -54 16 -59 9 -3 76 -6 150 -6 115 0 136 2 141
16 3 9 1 25 -5 35 -17 27 -15 57 8 88 10 16 22 43 25 62 3 19 10 38 16 44 5 5
9 19 9 32 0 19 -5 23 -28 23 -16 0 -31 -2 -33 -4z"/>
<path d="M4531 1015 c-39 -68 -45 -87 -52 -163 -4 -48 -17 -111 -29 -141 -11
-29 -27 -83 -35 -120 -8 -36 -28 -106 -44 -155 -17 -49 -38 -125 -46 -169 -17
-91 -39 -145 -84 -207 -17 -24 -31 -47 -31 -52 0 -4 58 -8 129 -8 l130 0 6 58
c3 31 12 107 20 167 8 61 17 136 20 168 4 32 18 102 31 155 44 175 53 222 60
321 7 106 0 178 -19 205 -11 15 -18 8 -56 -59z"/>
<path d="M2 960 c0 -14 2 -19 5 -12 2 6 2 18 0 25 -3 6 -5 1 -5 -13z"/>
<path d="M2 870 c0 -14 2 -19 5 -12 2 6 2 18 0 25 -3 6 -5 1 -5 -13z"/>
<path d="M951 164 c-1 -23 -4 -69 -7 -103 l-7 -61 37 0 c36 0 36 0 36 44 0 85
-11 136 -31 136 -9 0 -20 6 -22 13 -3 6 -6 -6 -6 -29z"/>
<path d="M426 148 c-3 -13 -7 -51 -9 -86 -4 -48 -2 -62 9 -62 10 0 13 20 13
85 0 85 -5 105 -13 63z"/>
<path d="M553 125 c0 -22 2 -30 4 -17 2 12 2 30 0 40 -3 9 -5 -1 -4 -23z"/>
</g>
</svg>
